<svg xmlns="http://www.w3.org/2000/svg" version="1.0" preserveAspectRatio="xMidYMid meet" viewBox="1.16 -0.16 602.84 198.16">

<g transform="translate(0.000000,480.000000) scale(0.100000,-0.100000)" fill="#000000" stroke="none">
<path d="M15 4788 c-3 -7 -4 -452 -3 -988 l3 -975 375 -3 c522 -4 614 10 715 112 92 93 89 75 93 774 4 666 -2 773 -43 857 -50 104 -140 171 -267 199 -143 33 -863 52 -873 24z m610 -342 c62 -26 60 -6 60 -626 0 -414 -4 -572 -12 -592 -16 -35 -48 -55 -100 -64 l-43 -7 0 652 0 651 30 0 c17 0 46 -6 65 -14z"/>
<path d="M1395 4789 c-3 -8 -4 -453 -3 -989 l3 -975 258 -3 257 -2 0 450 c0 503 -7 461 71 440 77 -21 73 -2 79 -469 l5 -416 238 -3 238 -2 -3 412 c-3 402 -4 414 -25 453 -34 64 -78 104 -148 136 -62 29 -76 49 -35 49 27 0 112 38 137 62 46 43 65 120 71 284 9 293 -52 446 -211 523 -86 42 -175 51 -584 58 -288 5 -343 4 -348 -8z m587 -339 c20 -6 47 -23 58 -38 20 -25 21 -36 18 -179 -4 -180 -10 -192 -97 -201 l-51 -5 0 217 c0 241 -5 227 72 206z"/>
<path d="M2885 4788 c-2 -7 -9 -51 -15 -98 -31 -248 -84 -646 -100 -755 -5 -38 -21 -158 -35 -265 -13 -107 -36 -280 -50 -385 -38 -284 -55 -417 -55 -443 l0 -22 263 2 262 3 13 155 c19 222 7 200 107 200 53 0 86 -4 91 -12 4 -6 12 -86 18 -177 l11 -166 264 -3 264 -2 -6 37 c-3 21 -13 85 -21 143 -51 348 -67 451 -76 505 -5 33 -23 155 -40 270 -17 116 -34 237 -40 270 -9 59 -19 125 -80 534 -17 112 -33 207 -36 212 -3 5 -169 9 -370 9 -283 0 -366 -3 -369 -12z m411 -640 c7 -95 21 -240 29 -323 9 -82 18 -183 22 -223 l6 -73 -84 3 -84 3 3 60 c3 68 23 257 52 485 28 224 32 251 37 246 3 -3 11 -83 19 -178z"/>
<path d="M4015 4788 c-3 -7 -4 -452 -3 -988 l3 -975 255 0 255 0 2 415 2 415 153 2 153 1 0 184 0 183 -155 3 -155 2 2 183 2 182 176 3 175 2 0 200 0 200 -430 0 c-335 0 -432 -3 -435 -12z"/>
<path d="M4920 4600 l0 -199 148 -3 147 -3 5 -785 5 -785 255 0 255 0 3 788 2 787 150 0 150 0 -2 198 -3 197 -557 3 -558 2 0 -200z"/>
</g>
</svg>