<svg xmlns="http://www.w3.org/2000/svg" width="1100" height="482" data-name="Layer 1" viewBox="0 0 170 74.491"><path d="M47.96 46.117h-7.79l-2.37-5.72H24.88l-2.16 5.72H15.1l11.64-28.88h8.34zm-16.89-22-4.28 11.25h8.89zm44.99-6.88h6.27v28.88h-7.2v-18l-7.79 9.06h-1.1l-7.79-9.1v18h-7.2v-28.84h6.27l9.27 10.74zm24.51 0c10.54 0 16 6.56 16 14.48 0 8.3-5.25 14.4-16.77 14.4H87.82v-28.88zm-5.55 23.59h4.7c7.24 0 9.4-4.91 9.4-9.15 0-5-2.67-9.15-9.48-9.15h-4.62zm50.72-16.74h-14.89l-9.07-9.08h33.04v33.05l-9.08-9.08zm-14.9 14.9v-13.08l-9.34 9.34v13.09h13.08l9.34-9.35z" class="cls-1"/><path d="M4.37 46.275c-.303.086-.62.144-.88.144-.462 0-.635-.245-.635-.62V42.12h1.688l.115-1.4H2.855v-1.99l-1.76.245v1.746H.044v1.399h1.053v3.909c0 1.255.649 1.86 1.932 1.86.447 0 1.169-.115 1.544-.274zm7.385-1.154v-1.774c0-1.443-.65-2.77-3.058-2.77-2.409 0-3.058 1.327-3.058 2.77v1.774c0 1.442.65 2.77 3.058 2.77 2.409 0 3.058-1.328 3.058-2.77zm-1.76-1.832v1.89c0 .793-.36 1.211-1.298 1.211-.938 0-1.298-.418-1.298-1.211v-1.89c0-.793.36-1.212 1.298-1.212.938 0 1.298.419 1.298 1.212zm5.856 2.582c1.962 0 2.828-.865 2.828-2.293v-.664c0-.404-.087-.793-.246-1.096.246-.072.534-.144.78-.217v-.88h-2.164a4.77 4.77 0 0 0-1.198-.144c-2.033 0-2.798.88-2.827 2.337v.664c0 .85.303 1.5.952 1.89-.346.244-.735.62-.735 1.196 0 .895.39 1.226 1.384 1.342.895.1 1.226.144 2.034.23.534.058.664.13.664.563 0 .462-.274.563-1.673.563a9.75 9.75 0 0 1-2.366-.303l-.216 1.312c.793.246 1.904.361 2.711.361 2.626 0 3.174-.591 3.174-2.092 0-1.01-.36-1.572-1.5-1.702-.823-.086-1.255-.13-2.034-.216-.274-.029-.39-.115-.39-.303 0-.216.188-.418.419-.562.13.014.26.014.403.014zm1.183-2.9v.534c0 .678-.346.952-1.183.952-.822 0-1.168-.26-1.168-.952v-.533c0-.664.303-.981 1.168-.981.88 0 1.183.317 1.183.98zm4.919 2.294v-.36h3.909v-1.5c0-1.515-.505-2.828-2.755-2.828s-2.914 1.255-2.914 2.74v1.862c0 1.687.765 2.711 2.972 2.711.836 0 1.788-.144 2.581-.447l-.274-1.327a7.364 7.364 0 0 1-2.149.332c-1.067 0-1.37-.332-1.37-1.183zm0-2.12c0-.664.303-1.125 1.168-1.125.866 0 1.068.461 1.068 1.125v.346h-2.236Zm9.03 3.13c-.303.086-.62.144-.88.144-.462 0-.635-.245-.635-.62V42.12h1.688l.115-1.4h-1.803v-1.99l-1.76.245v1.746h-1.053v1.399h1.053v3.909c0 1.255.65 1.86 1.933 1.86.447 0 1.168-.115 1.543-.274zm7.5 1.471v-5.092c0-1.254-.418-2.077-1.587-2.077-.75 0-1.788.274-2.567.678v-3.649l-1.76.245v9.895h1.76v-4.875c.635-.332 1.399-.592 1.832-.592.404 0 .562.188.562.563v4.904zm3.39-2.48v-.361h3.909v-1.5c0-1.515-.505-2.828-2.755-2.828s-2.914 1.255-2.914 2.74v1.862c0 1.687.764 2.711 2.971 2.711.837 0 1.789-.144 2.582-.447l-.274-1.327a7.364 7.364 0 0 1-2.149.332c-1.067 0-1.37-.332-1.37-1.183zm0-2.121c0-.664.303-1.125 1.168-1.125.866 0 1.067.461 1.067 1.125v.346h-2.235zm8.943-2.568c-.62.173-1.457.664-1.847.923l-.115-.778h-1.486v7.024h1.76v-4.529a13.775 13.775 0 0 1 1.86-1.024zm6.967 7.17 1.485-5.05 1.486 5.05h2.034l1.298-7.025h-1.644l-.866 4.702-1.385-4.702H58.36l-1.4 4.702-.865-4.702h-1.644l1.298 7.024zm9.015-2.482v-.36h3.909v-1.5c0-1.515-.505-2.828-2.755-2.828s-2.914 1.255-2.914 2.74v1.862c0 1.687.764 2.711 2.971 2.711.837 0 1.789-.144 2.582-.447l-.274-1.327a7.364 7.364 0 0 1-2.149.332c-1.067 0-1.37-.332-1.37-1.183zm0-2.12c0-.664.303-1.125 1.168-1.125.866 0 1.068.461 1.068 1.125v.346h-2.236zm5.568 4.601h1.788v-2.02h-1.788zm3.952 0h1.788v-2.02h-1.788zm3.952 0h1.789v-2.02H80.27zm9.087-4.63c0-1.76-.649-2.539-2.856-2.539-.779 0-1.745.13-2.409.332l.217 1.342a9.82 9.82 0 0 1 1.947-.217c1.125 0 1.341.274 1.341 1.053v.736H85.91c-1.428 0-2.048.548-2.048 1.976 0 1.212.548 2.091 1.831 2.091.707 0 1.457-.202 2.092-.62l.13.476h1.442zm-1.76 3.015a2.77 2.77 0 0 1-1.327.36c-.548 0-.706-.216-.706-.707 0-.533.158-.692.735-.692h1.298zm7.083-5.554c-.62.173-1.457.664-1.847.923l-.115-.778h-1.486v7.024h1.76v-4.529a13.775 13.775 0 0 1 1.86-1.024zm2.798 4.688v-.36h3.909v-1.5c0-1.515-.505-2.828-2.755-2.828s-2.914 1.255-2.914 2.74v1.862c0 1.687.765 2.711 2.972 2.711.836 0 1.788-.144 2.582-.447l-.274-1.327a7.364 7.364 0 0 1-2.15.332c-1.067 0-1.37-.332-1.37-1.183zm0-2.12c0-.664.303-1.125 1.168-1.125.866 0 1.068.461 1.068 1.125v.346h-2.236zm10.285 4.601v-10.14l-1.76.245v9.895zm7.817-2.625v-1.774c0-1.443-.649-2.77-3.058-2.77-2.408 0-3.057 1.327-3.057 2.77v1.774c0 1.442.649 2.77 3.057 2.77 2.41 0 3.058-1.328 3.058-2.77zm-1.76-1.832v1.89c0 .793-.36 1.211-1.298 1.211-.937 0-1.298-.418-1.298-1.211v-1.89c0-.793.36-1.212 1.298-1.212.938 0 1.299.419 1.299 1.212zm8.18 2.409c0-1.442-.188-1.702-2.15-2.221-.952-.246-.995-.289-.995-.851 0-.433.13-.606.894-.606.548 0 1.4.1 1.933.202l.173-1.4c-.606-.158-1.457-.245-2.106-.245-2.005 0-2.625.62-2.625 2.034 0 1.356.202 1.789 1.918 2.207 1.14.274 1.226.49 1.226.923 0 .534-.115.707-.894.707-.721 0-1.5-.13-2.092-.303l-.245 1.342c.65.23 1.673.403 2.424.403 2.12 0 2.538-.836 2.538-2.192zm5.264.577c-.303.086-.62.144-.88.144-.461 0-.635-.245-.635-.62V42.12h1.688l.116-1.4h-1.804v-1.99l-1.76.245v1.746h-1.052v1.399h1.053v3.909c0 1.255.649 1.86 1.933 1.86.447 0 1.168-.115 1.543-.274zm6.924 2.539v-.924h-6.361v.924z" aria-label="together we...are lost_" font-family="Klavika" font-size="14.424" style="-inkscape-font-specification:Klavika;white-space:pre" transform="translate(14.873 17.197)"/></svg>
